<svg xmlns="http://www.w3.org/2000/svg" viewBox="0 0 24 24"><path fill="#2b7a78" d="M19.14 12.94a7.48 7.48 0 0 0 .05-.94c0-.32-.02-.63-.05-.94l2.03-1.58a.5.5 0 0 0 .12-.64l-1.92-3.32a.5.5 0 0 0-.6-.22l-2.39.96a7.027 7.027 0 0 0-1.63-.94l-.36-2.54A.5.5 0 0 0 13.9 1h-3.8a.5.5 0 0 0-.5.43l-.36 2.54c-.59.23-1.14.54-1.63.94L5.21 4.95a.5.5 0 0 0-.6.22L2.69 8.49a.5.5 0 0 0 .12.64l2.03 1.58c-.03.31-.05.62-.05.94s.02.63.05.94L2.81 14.17a.5.5 0 0 0-.12.64l1.92 3.32a.5.5 0 0 0 .6.22l2.39-.96c.49.4 1.04.71 1.63.94l.36 2.54c.04.24.25.43.5.43h3.8c.25 0 .46-.19.5-.43l.36-2.54c.59-.23 1.14-.54 1.63-.94l2.39.96c.23.09.5 0 .6-.22l1.92-3.32a.5.5 0 0 0-.12-.64l-2.03-1.58zM12 15.5A3.5 3.5 0 1 1 12 8.5a3.5 3.5 0 0 1 0 7z"/></svg> 